<svg width="500" height="500" viewBox="0 0 500 500" fill="none" xmlns="http://www.w3.org/2000/svg">
<rect width="500" height="500" rx="40" fill="#0C0A09"/>
<path fill-rule="evenodd" clip-rule="evenodd" d="M194.5 466L152.5 411.064L137.5 426.046L37 342.643L78.5 289.704V111.91L204.5 34H294.5L420.5 111.91V289.704L462 342.643L361.5 426.046L346.5 411.064L304.5 466H194.5ZM199 321C199 343.091 181.091 361 159 361C136.909 361 119 343.091 119 321C119 298.909 136.909 281 159 281C181.091 281 199 298.909 199 321ZM381 321C381 343.091 363.091 361 341 361C318.909 361 301 343.091 301 321C301 298.909 318.909 281 341 281C363.091 281 381 298.909 381 321ZM246 401.5L237 414L225 406L250 367L275 406L263 414L254 401.5H246Z" fill="#FAFAF9"/>
<path d="M361 104H139C125.433 104 114.333 115.1 114.333 128.667V227.333C114.333 240.9 125.433 252 139 252H361C374.567 252 385.667 240.9 385.667 227.333V128.667C385.667 115.1 374.567 104 361 104ZM237.667 190.333H200.667V227.333H176V190.333H139V165.667H176V128.667H200.667V165.667H237.667V190.333ZM293.167 215C282.93 215 274.667 206.737 274.667 196.5C274.667 186.263 282.93 178 293.167 178C303.403 178 311.667 186.263 311.667 196.5C311.667 206.737 303.403 215 293.167 215ZM342.5 178C332.263 178 324 169.737 324 159.5C324 149.263 332.263 141 342.5 141C352.737 141 361 149.263 361 159.5C361 169.737 352.737 178 342.5 178Z" fill="#0C0A09"/>
</svg>
