<svg width="current" height="current" viewBox="0 0 500 500" fill="none" xmlns="http://www.w3.org/2000/svg">
<path fill-rule="evenodd" clip-rule="evenodd" d="M194.5 466L152.5 411.064L137.5 426.046L37 342.643L78.5 289.704V111.91L204.5 34H294.5L420.5 111.91V289.704L462 342.643L361.5 426.046L346.5 411.064L304.5 466H194.5ZM199 321C199 343.091 181.091 361 159 361C136.909 361 119 343.091 119 321C119 298.909 136.909 281 159 281C181.091 281 199 298.909 199 321ZM381 321C381 343.091 363.091 361 341 361C318.909 361 301 343.091 301 321C301 298.909 318.909 281 341 281C363.091 281 381 298.909 381 321ZM246 401.5L237 414L225 406L250 367L275 406L263 414L254 401.5H246Z" fill="#FAFAF9"/>
</svg>
